<svg width="1437" height="960" viewBox="0 0 1437 960" fill="none" xmlns="http://www.w3.org/2000/svg">
<g clip-path="url(#clip0_229_78)">
<line x1="-32.2949" y1="609.548" x2="1479.28" y2="609.548" stroke="white" stroke-opacity="0.09" stroke-width="1.2607"/>
<line x1="-32.2949" y1="932.287" x2="1479.28" y2="932.287" stroke="white" stroke-opacity="0.09" stroke-width="1.2607"/>
<line x1="-32.2949" y1="286.81" x2="1479.28" y2="286.81" stroke="white" stroke-opacity="0.09" stroke-width="1.2607"/>
<line x1="-32.2949" y1="448.178" x2="1479.28" y2="448.178" stroke="white" stroke-opacity="0.09" stroke-width="1.2607"/>
<line x1="-32.2949" y1="770.917" x2="1479.28" y2="770.917" stroke="white" stroke-opacity="0.09" stroke-width="1.2607"/>
<line x1="-32.2949" y1="125.44" x2="1479.28" y2="125.44" stroke="white" stroke-opacity="0.09" stroke-width="1.2607"/>
<line x1="-32.2949" y1="528.863" x2="1479.28" y2="528.863" stroke="white" stroke-opacity="0.09" stroke-width="1.2607"/>
<line x1="-32.2949" y1="851.601" x2="1479.28" y2="851.601" stroke="white" stroke-opacity="0.09" stroke-width="1.2607"/>
<line x1="-32.2949" y1="206.125" x2="1479.28" y2="206.125" stroke="white" stroke-opacity="0.09" stroke-width="1.2607"/>
<line x1="-32.2949" y1="367.493" x2="1479.28" y2="367.493" stroke="white" stroke-opacity="0.09" stroke-width="1.2607"/>
<line x1="-32.2949" y1="690.233" x2="1479.28" y2="690.233" stroke="white" stroke-opacity="0.09" stroke-width="1.2607"/>
<line x1="-32.2949" y1="44.7544" x2="1479.28" y2="44.7544" stroke="white" stroke-opacity="0.09" stroke-width="1.2607"/>
<line x1="14.98" y1="-64.2949" x2="14.9799" y2="1103.11" stroke="white" stroke-opacity="0.09" stroke-width="1.2607"/>
<line x1="660.46" y1="-64.2949" x2="660.46" y2="1103.11" stroke="white" stroke-opacity="0.09" stroke-width="1.2607"/>
<line x1="337.72" y1="-64.2949" x2="337.72" y2="1103.11" stroke="white" stroke-opacity="0.09" stroke-width="1.2607"/>
<line x1="983.197" y1="-64.2949" x2="983.197" y2="1103.11" stroke="white" stroke-opacity="0.09" stroke-width="1.2607"/>
<line x1="1305.94" y1="-64.2949" x2="1305.94" y2="1103.11" stroke="white" stroke-opacity="0.09" stroke-width="1.2607"/>
<line x1="176.35" y1="-64.2949" x2="176.35" y2="1103.11" stroke="white" stroke-opacity="0.09" stroke-width="1.2607"/>
<line x1="821.827" y1="-64.2949" x2="821.827" y2="1103.11" stroke="white" stroke-opacity="0.09" stroke-width="1.2607"/>
<line x1="499.091" y1="-64.2949" x2="499.091" y2="1103.11" stroke="white" stroke-opacity="0.09" stroke-width="1.2607"/>
<line x1="1144.57" y1="-64.2949" x2="1144.57" y2="1103.11" stroke="white" stroke-opacity="0.09" stroke-width="1.2607"/>
<line x1="95.6672" y1="-64.2949" x2="95.6672" y2="1103.11" stroke="white" stroke-opacity="0.09" stroke-width="1.2607"/>
<line x1="741.144" y1="-64.2949" x2="741.144" y2="1103.11" stroke="white" stroke-opacity="0.09" stroke-width="1.2607"/>
<line x1="418.403" y1="-64.2949" x2="418.403" y2="1103.11" stroke="white" stroke-opacity="0.09" stroke-width="1.2607"/>
<line x1="1063.88" y1="-64.2949" x2="1063.88" y2="1103.11" stroke="white" stroke-opacity="0.09" stroke-width="1.2607"/>
<line x1="1386.62" y1="-64.2949" x2="1386.62" y2="1103.11" stroke="white" stroke-opacity="0.09" stroke-width="1.2607"/>
<line x1="257.038" y1="-64.2949" x2="257.038" y2="1103.11" stroke="white" stroke-opacity="0.09" stroke-width="1.2607"/>
<line x1="902.514" y1="-64.2949" x2="902.514" y2="1103.11" stroke="white" stroke-opacity="0.09" stroke-width="1.2607"/>
<line x1="579.773" y1="-64.2949" x2="579.773" y2="1103.11" stroke="white" stroke-opacity="0.09" stroke-width="1.2607"/>
<line x1="1225.25" y1="-64.2949" x2="1225.25" y2="1103.11" stroke="white" stroke-opacity="0.09" stroke-width="1.2607"/>
<g opacity="0.7">
<rect x="821.887" y="770.858" width="80.2262" height="80.2262" fill="white" fill-opacity="0.36"/>
<rect x="418.463" y="770.858" width="80.2262" height="80.2262" fill="white" fill-opacity="0.25"/>
<rect x="1145.08" y="206.982" width="80.2262" height="79.0801" fill="white" fill-opacity="0.11"/>
<rect x="498.689" y="126.757" width="80.2262" height="79.0801" fill="white" fill-opacity="0.31"/>
<rect x="1063.71" y="287.209" width="80.2262" height="79.0801" fill="white" fill-opacity="0.11"/>
<rect x="417.317" y="206.982" width="80.2262" height="79.0801" fill="white" fill-opacity="0.31"/>
<rect x="1063.71" y="206.982" width="80.2262" height="79.0801" fill="white" fill-opacity="0.11"/>
<rect x="417.317" y="126.757" width="80.2262" height="79.0801" fill="white" fill-opacity="0.31"/>
<rect x="338.236" y="770.858" width="80.2262" height="80.2262" fill="white" fill-opacity="0.25"/>
<rect x="338.236" y="851.085" width="80.2262" height="81.3723" fill="white" fill-opacity="0.25"/>
<rect x="176.639" y="690.633" width="80.2262" height="80.2262" fill="white" fill-opacity="0.25"/>
<rect x="983.485" y="45.3848" width="80.2262" height="80.2262" fill="white" fill-opacity="0.886275"/>
<rect x="903.259" y="-46.3027" width="80.2262" height="80.2262" fill="white" fill-opacity="0.886275"/>
<rect x="902.382" y="44.2383" width="80.2262" height="81.3723" fill="white" fill-opacity="0.886275"/>
<rect x="176.638" y="124.465" width="81.3723" height="82.5184" fill="white" fill-opacity="0.24"/>
<rect x="95.2656" y="44.2383" width="81.3723" height="80.2262" fill="white" fill-opacity="0.24"/>
<rect x="15.0391" y="45.3848" width="81.3723" height="80.2262" fill="white" fill-opacity="0.24"/>
<rect x="95.2656" y="124.465" width="81.3723" height="82.5184" fill="white" fill-opacity="0.24"/>
<rect x="418.463" y="-35.9883" width="81.3723" height="80.2262" fill="white"/>
<rect x="176.638" y="286.062" width="80.2262" height="81.3723" fill="white" fill-opacity="0.24"/>
<rect x="1145.08" y="690.633" width="80.2262" height="80.2262" fill="white" fill-opacity="0.26"/>
<rect x="1225.31" y="770.858" width="80.2262" height="80.2262" fill="white" fill-opacity="0.26"/>
</g>
</g>
<defs>
<clipPath id="clip0_229_78">
<rect width="1440" height="968" fill="white"/>
</clipPath>
</defs>
</svg>
